<svg width="28" height="28" fill="none" xmlns="http://www.w3.org/2000/svg"><path fill-rule="evenodd" clip-rule="evenodd" d="M.872 4.368C0 6.08 0 8.32 0 12.8v2.4c0 4.48 0 6.72.872 8.432a8 8 0 003.496 3.496C6.08 28 8.32 28 12.8 28h2.4c4.48 0 6.72 0 8.432-.872a8 8 0 003.496-3.496C28 21.92 28 19.68 28 15.2v-2.4c0-4.48 0-6.72-.872-8.432A8 8 0 0023.632.872C21.92 0 19.68 0 15.2 0h-2.4C8.32 0 6.08 0 4.368.872A8 8 0 00.872 4.368zM8.925 5.75H5.5v1.5h2.575L9.18 9.09a12.236 12.236 0 00-1.522 2.88l-.732-1.22H3.5v1.5h2.575l1.043 1.738A8.637 8.637 0 007 15.38C7 19.043 10.141 22 14 22c3.86 0 7-2.957 7-6.62 0-.453-.04-.92-.118-1.392l1.043-1.738H24.5v-1.5h-3.424l-.733 1.22a12.237 12.237 0 00-1.522-2.88l1.104-1.84H22.5v-1.5h-3.424L17.8 7.874C16.678 6.736 15.356 6 14.001 6c-1.357 0-2.679.736-3.802 1.874L8.925 5.75zm10.537 9.63c0 2.815-2.439 5.11-5.462 5.11-3.023 0-5.461-2.295-5.461-5.11 0-3.401 2.877-7.87 5.461-7.87 2.584 0 5.462 4.469 5.462 7.87z" fill="currentColor"></path></svg>