<svg width="28" height="28" viewBox="0 0 28 28" fill="none" xmlns="http://www.w3.org/2000/svg">
<path fill-rule="evenodd" clip-rule="evenodd" d="M0.871948 4.36808C0 6.07937 0 8.31958 0 12.8V15.2C0 19.6804 0 21.9206 0.871948 23.6319C1.63893 25.1372 2.86278 26.3611 4.36808 27.1281C6.07937 28 8.31958 28 12.8 28H15.2C19.6804 28 21.9206 28 23.6319 27.1281C25.1372 26.3611 26.3611 25.1372 27.1281 23.6319C28 21.9206 28 19.6804 28 15.2V12.8C28 8.31958 28 6.07937 27.1281 4.36808C26.3611 2.86278 25.1372 1.63893 23.6319 0.871948C21.9206 0 19.6804 0 15.2 0H12.8C8.31958 0 6.07937 0 4.36808 0.871948C2.86278 1.63893 1.63893 2.86278 0.871948 4.36808ZM8.92464 5.75H5.5V7.25H8.07536L9.17918 9.08971C8.55489 9.95923 8.03316 10.9485 7.65688 11.9704L6.92464 10.75H3.5V12.25H6.07536L7.11807 13.9879C7.04078 14.4598 7.00005 14.9267 7.00005 15.3801C7.00005 19.0433 10.141 22 14.0001 22C17.8591 22 21.0001 19.0433 21.0001 15.3801C21.0001 14.9267 20.9593 14.4598 20.882 13.9879L21.9247 12.25H24.5001V10.75H21.0755L20.3432 11.9704C19.9669 10.9485 19.4452 9.95923 18.8209 9.08971L19.9247 7.25H22.5001V5.75H19.0755L17.8011 7.87402C16.6777 6.73616 15.3557 6 14.0001 6C12.6444 6 11.3224 6.73616 10.1991 7.87402L8.92464 5.75ZM19.4616 15.3801C19.4616 18.1954 17.0233 20.4906 14.0001 20.4906C10.9768 20.4906 8.53852 18.1954 8.53852 15.3801C8.53852 11.9789 11.4159 7.50943 14.0001 7.50943C16.5842 7.50943 19.4616 11.9789 19.4616 15.3801Z" fill="currentColor"/>
</svg>
